<svg width="103" height="128" fill="none" xmlns="http://www.w3.org/2000/svg"><g filter="url(#a)"><rect y=".996" width="103" height="126" rx="13" fill="#E5ECFE"/></g><g clip-path="url(#b)" fill="#008FDD"><path d="M26.734 31v7.734h-1.933v3.868H40.27v-3.868h-1.934v-3.867h8.867l3.301 3.3 2.734-2.733L48.804 31h-22.07ZM65.535 83.338a1.934 1.934 0 0 0 3.867-.002c-.017-.593-.821-2.277-1.933-4.15-1.114 1.876-1.919 3.56-1.934 4.152Z"/><path d="M77.266 62.066V58.2H57.672v3.867h-3.129c-3.32 6.71-4.605 12.782-4.605 17.403 0 4.616 1.281 10.815 4.605 17.531h25.852C83.715 90.29 85 84.09 85 79.469c0-4.616-1.281-10.686-4.606-17.403h-3.128Zm-9.797 27.07a5.807 5.807 0 0 1-5.801-5.8c0-2.472 2.944-7 4.209-8.833l1.592-2.304 1.592 2.304c1.265 1.833 4.208 6.361 4.208 8.833 0 3.199-2.602 5.8-5.8 5.8ZM57.672 42.602h19.594v11.73H57.672v-11.73ZM30.602 75.603a1.935 1.935 0 0 0 3.867-.001c-.017-.593-.822-2.278-1.934-4.15-1.114 1.876-1.918 3.56-1.933 4.151ZM19 89.137h27.07V97H19v-7.863ZM19 46.469h27.07v7.863H19v-7.863Z"/><path d="M46.07 58.2H19v27.07h27.07V58.2ZM32.535 81.401a5.807 5.807 0 0 1-5.8-5.8c0-2.472 2.943-7 4.208-8.834l1.592-2.303 1.592 2.303c1.265 1.834 4.209 6.362 4.209 8.834 0 3.198-2.602 5.8-5.8 5.8Z"/></g><defs><clipPath id="b"><path fill="#fff" transform="translate(19 31)" d="M0 0h66v66H0z"/></clipPath><filter id="a" x="0" y=".996" width="103" height="127" filterUnits="userSpaceOnUse" color-interpolation-filters="sRGB"><feFlood flood-opacity="0" result="BackgroundImageFix"/><feColorMatrix in="SourceAlpha" values="0 0 0 0 0 0 0 0 0 0 0 0 0 0 0 0 0 0 127 0" result="hardAlpha"/><feOffset dy="1"/><feColorMatrix values="0 0 0 0 0 0 0 0 0 0.560784 0 0 0 0 0.866667 0 0 0 1 0"/><feBlend in2="BackgroundImageFix" result="effect1_dropShadow_11634_9"/><feBlend in="SourceGraphic" in2="effect1_dropShadow_11634_9" result="shape"/></filter></defs></svg>