<svg width="163" height="103" fill="none" xmlns="http://www.w3.org/2000/svg"><path d="M76.12 73.48c1.973-.88 3.84-1.32 5.6-1.32 2.293 0 3.467 1.347 3.52 4.04H81c-2.16 0-3.907.533-5.24 1.6-1.307 1.067-1.96 2.573-1.96 4.52 0 1.867.573 3.36 1.72 4.48 1.173 1.12 2.88 1.68 5.12 1.68.96 0 1.92-.227 2.88-.68a9.508 9.508 0 0 0 2.56-1.76l.68 1.96h3V75.04c0-1.307-.36-2.48-1.08-3.52-.72-1.067-1.707-1.907-2.96-2.52-1.227-.613-2.587-.92-4.08-.92-.907 0-2.093.173-3.56.52-1.44.347-2.507.747-3.2 1.2l1.24 3.68Zm1.6 8.84c0-.88.28-1.613.84-2.2.587-.613 1.373-.92 2.36-.92h4.36v3.48a7.819 7.819 0 0 1-2.24 1.64c-.827.4-1.653.6-2.48.6-.88 0-1.573-.253-2.08-.76-.507-.533-.76-1.147-.76-1.84Zm21.002-6.68a16.93 16.93 0 0 1 3.52-2.44c1.28-.667 2.4-1 3.36-1l-.92-3.6c-.933 0-2.027.333-3.28 1-1.227.667-2.32 1.4-3.28 2.2l-1.48-3.2h-2.4V88h4.48V75.64Zm18.262-7.56c1.974 0 3.694.427 5.16 1.28 1.467.827 2.587 2.013 3.36 3.56.8 1.547 1.2 3.36 1.2 5.44 0 2-.4 3.773-1.2 5.32a8.67 8.67 0 0 1-3.44 3.56c-1.466.853-3.186 1.28-5.16 1.28-.72 0-1.533-.16-2.44-.48-.88-.32-1.706-.747-2.48-1.28l-.92 1.24h-2.36V60.2l4.48-.44v9.36c1.307-.693 2.574-1.04 3.8-1.04Zm-.08 16.56c1.6 0 2.854-.587 3.76-1.76.934-1.173 1.4-2.68 1.4-4.52 0-1.92-.453-3.467-1.36-4.64-.906-1.2-2.173-1.8-3.8-1.8a5.93 5.93 0 0 0-1.96.32 7.194 7.194 0 0 0-1.76.96v10.24c1.094.8 2.334 1.2 3.72 1.2Zm30.157-6.48c0-2.933-.733-5.347-2.2-7.24-1.466-1.893-3.626-2.84-6.48-2.84-1.946 0-3.64.427-5.08 1.28-1.413.853-2.506 2.053-3.28 3.6-.746 1.52-1.12 3.293-1.12 5.32 0 3.147.92 5.64 2.76 7.48 1.867 1.813 4.56 2.72 8.08 2.72 2.614 0 5-.747 7.16-2.24l-1.36-3.28c-1.146.587-2.133 1.027-2.96 1.32-.8.267-1.72.4-2.76.4-3.733 0-5.8-1.733-6.2-5.2h13.44v-1.32Zm-13.36-1.68c.187-1.44.667-2.56 1.44-3.36.8-.8 1.84-1.2 3.12-1.2 1.254 0 2.254.387 3 1.16.747.773 1.24 1.907 1.48 3.4h-9.04Zm21.232-.84a16.914 16.914 0 0 1 3.52-2.44c1.28-.667 2.4-1 3.36-1l-.92-3.6c-.934 0-2.027.333-3.28 1-1.227.667-2.32 1.4-3.28 2.2l-1.48-3.2h-2.4V88h4.48V75.64Z" fill="#99BAED"/><g clip-path="url(#a)"><path d="M50.58 7.776c-5.956.521-10.484 5.781-9.963 11.739l2.68 30.633-10.135 4.725c-3.394-5.897-10.795-8.318-17.077-5.388-6.634 3.094-9.503 10.978-6.41 17.612 3.093 6.633 10.977 9.504 17.612 6.41a13.249 13.249 0 0 0 7.627-11.185l12.413-5.789 1.193 13.642a13.253 13.253 0 0 0-5.874 12.199c.638 7.292 7.066 12.684 14.357 12.047 7.293-.638 12.686-7.066 12.048-14.357-.604-6.905-6.4-12.103-13.205-12.095l-.975-11.14 27.868-12.995c5.42-2.528 7.711-9.079 5.184-14.498L53.856 45.224 50.58 7.776ZM27.676 64.92a6.87 6.87 0 1 1-11.9-6.871 6.87 6.87 0 0 1 11.9 6.87Zm34.113 19.695a6.87 6.87 0 1 1-11.9-6.871 6.87 6.87 0 0 1 11.9 6.87Z" fill="#99BAED"/></g><defs><clipPath id="a"><path fill="#fff" transform="rotate(-60 55.668 32.14)" d="M0 0h74.224v74.224H0z"/></clipPath></defs></svg>