<svg width="103" height="128" fill="none" xmlns="http://www.w3.org/2000/svg"><g filter="url(#a)"><rect y=".996" width="103" height="126" rx="13" fill="#E5ECFE"/></g><path d="M32.04 30.995c-4.307 3.016-5.443 9.013-2.427 13.321l15.51 22.152-5.64 8.054c-5.178-2.999-11.879-1.588-15.375 3.406-3.691 5.273-2.41 12.538 2.862 16.231 5.273 3.691 12.54 2.411 16.232-2.862a11.651 11.651 0 0 0 .89-11.873L51 69.558l6.907 9.865a11.655 11.655 0 0 0 .89 11.873c3.693 5.273 10.96 6.553 16.231 2.862 5.274-3.693 6.555-10.959 2.863-16.231-3.496-4.993-10.196-6.404-15.375-3.405l-5.64-8.055 15.51-22.15c3.016-4.309 1.88-10.306-2.427-13.322L51 58.075l-18.96-27.08Zm7.683 53.591a6.042 6.042 0 1 1-12.084 0 6.042 6.042 0 0 1 12.084 0Zm34.639 0a6.042 6.042 0 1 1-12.084 0 6.042 6.042 0 0 1 12.084 0Z" fill="#008FDD"/><defs><filter id="a" x="0" y=".996" width="103" height="127" filterUnits="userSpaceOnUse" color-interpolation-filters="sRGB"><feFlood flood-opacity="0" result="BackgroundImageFix"/><feColorMatrix in="SourceAlpha" values="0 0 0 0 0 0 0 0 0 0 0 0 0 0 0 0 0 0 127 0" result="hardAlpha"/><feOffset dy="1"/><feColorMatrix values="0 0 0 0 0 0 0 0 0 0.560784 0 0 0 0 0.866667 0 0 0 1 0"/><feBlend in2="BackgroundImageFix" result="effect1_dropShadow_11634_10"/><feBlend in="SourceGraphic" in2="effect1_dropShadow_11634_10" result="shape"/></filter></defs></svg>